<?xml version="1.0" encoding="UTF-8" standalone="no"?>
<svg
   xmlns:dc="http://purl.org/dc/elements/1.1/"
   xmlns:cc="http://creativecommons.org/ns#"
   xmlns:rdf="http://www.w3.org/1999/02/22-rdf-syntax-ns#"
   xmlns:svg="http://www.w3.org/2000/svg"
   xmlns="http://www.w3.org/2000/svg"
   viewBox="0 0 358.66666 225.33333"
   height="225.33333"
   width="358.66666"
   xml:space="preserve"
   id="svg2"
   version="1.1"><metadata
     id="metadata8"><rdf:RDF><cc:Work
         rdf:about=""><dc:format>image/svg+xml</dc:format><dc:type
           rdf:resource="http://purl.org/dc/dcmitype/StillImage" /></cc:Work></rdf:RDF></metadata><defs
     id="defs6" /><g
     transform="matrix(1.3333333,0,0,-1.3333333,0,225.33333)"
     id="g10"><g
       transform="scale(0.1)"
       id="g12"><path
         id="path14"
         style="fill:#000000;fill-opacity:1;fill-rule:evenodd;stroke:none"
         d="m 1994.65,1616.02 c 2.34,0.35 1.83,2.65 -1.49,6.99 -3.32,4.69 -6.48,7.19 -9.49,7.5 h -85.51 c 2.66,-5 5.36,-9.85 8.01,-14.49 h 88.48" /><path
         id="path16"
         style="fill:#000000;fill-opacity:1;fill-rule:evenodd;stroke:none"
         d="m 682.148,1630.51 c -2.66,-0.31 -5.976,-2.81 -10,-7.5 -2.968,-4.34 -3.32,-6.64 -0.976,-6.99 h 112.5 c 2.656,4.64 5.308,9.49 8.008,14.49 H 682.148" /><path
         id="path18"
         style="fill:#000000;fill-opacity:1;fill-rule:evenodd;stroke:none"
         d="m 1803.16,1616.02 c -2.34,4.64 -4.64,9.49 -6.99,14.49 h -99.49 c 1.64,-5 3.32,-9.85 5,-14.49 h 101.48" /><path
         id="path20"
         style="fill:#000000;fill-opacity:1;fill-rule:evenodd;stroke:none"
         d="m 1193.16,1616.02 2,14.49 h -100.98 c -1.37,-5 -2.7,-9.85 -4.02,-14.49 h 103" /><path
         id="path22"
         style="fill:#000000;fill-opacity:1;fill-rule:evenodd;stroke:none"
         d="m 988.672,1616.02 c 1.637,4.64 3.316,9.49 5,14.49 h -100 l -6.524,-14.49 h 101.524" /><path
         id="path24"
         style="fill:#000000;fill-opacity:1;fill-rule:evenodd;stroke:none"
         d="m 1396.68,1616.02 c -0.35,4.64 -0.66,9.49 -1.02,14.49 -33.98,0 -67.85,0 -101.48,0 -0.35,-5 -0.66,-9.85 -1.02,-14.49 h 103.52" /><path
         id="path26"
         style="fill:#000000;fill-opacity:1;fill-rule:evenodd;stroke:none"
         d="m 1600.16,1616.02 -3.99,14.49 h -101.01 c 0.66,-4.65 1.32,-9.49 1.99,-14.49 h 103.01" /><path
         id="path28"
         style="fill:#000000;fill-opacity:1;fill-rule:evenodd;stroke:none"
         d="m 1034.65,1403.01 h 129.53 l 1.99,14.49 h -127.5 c -1.33,-5 -2.65,-9.8 -4.02,-14.49" /><path
         id="path30"
         style="fill:#000000;fill-opacity:1;fill-rule:evenodd;stroke:none"
         d="m 789.18,1403.01 h 127.968 c 1.68,4.69 3.364,9.49 5,14.49 H 795.66 l -6.48,-14.49" /><path
         id="path32"
         style="fill:#000000;fill-opacity:1;fill-rule:evenodd;stroke:none"
         d="m 1772.66,1403.01 h 128 c -2.34,4.69 -4.64,9.49 -6.99,14.49 h -126.01 c 1.68,-5 3.36,-9.8 5,-14.49" /><path
         id="path34"
         style="fill:#000000;fill-opacity:1;fill-rule:evenodd;stroke:none"
         d="m 520.66,1417.5 c -3.672,-0.31 -7.34,-2.81 -11.012,-7.5 -3.32,-4.34 -3.476,-6.64 -0.468,-6.99 h 161.48 c 2.352,4.69 4.852,9.49 7.5,14.49 h -157.5" /><path
         id="path36"
         style="fill:#000000;fill-opacity:1;fill-rule:evenodd;stroke:none"
         d="m 1280.16,1403.01 h 129.49 c 0,4.69 -0.16,9.49 -0.47,14.49 h -128.01 c -0.35,-5 -0.66,-9.8 -1.01,-14.49" /><path
         id="path38"
         style="fill:#000000;fill-opacity:1;fill-rule:evenodd;stroke:none"
         d="m 1526.17,1403.01 h 129.49 l -3.98,14.49 h -127.5 c 0.66,-5 1.33,-9.8 1.99,-14.49" /><path
         id="path40"
         style="fill:#000000;fill-opacity:1;fill-rule:evenodd;stroke:none"
         d="m 2156.68,1403.01 c 2.97,0.35 2.81,2.65 -0.51,6.99 -3.67,4.69 -7.34,7.19 -11.01,7.5 h -133.48 c 2.66,-5 5.31,-9.8 7.97,-14.49 h 137.03" /><path
         id="path42"
         style="fill:#000000;fill-opacity:1;fill-rule:evenodd;stroke:none"
         d="m 1555.16,1190.51 h 155.5 c -1.01,4.69 -2.14,9.49 -3.51,14.49 h -153.99 c 0.67,-5 1.33,-9.8 2,-14.49" /><path
         id="path44"
         style="fill:#000000;fill-opacity:1;fill-rule:evenodd;stroke:none"
         d="m 979.18,1190.51 h 155.47 l 2.03,14.49 H 983.16 c -1.32,-5 -2.648,-9.8 -3.98,-14.49" /><path
         id="path46"
         style="fill:#000000;fill-opacity:1;fill-rule:evenodd;stroke:none"
         d="m 691.68,1190.51 h 154.492 c 1.328,4.69 2.808,9.49 4.488,14.49 h -152.5 l -6.48,-14.49" /><path
         id="path48"
         style="fill:#000000;fill-opacity:1;fill-rule:evenodd;stroke:none"
         d="m 358.16,1205 c -3.98,-0.31 -8,-2.81 -11.988,-7.5 -3.012,-4.34 -2.652,-6.64 0.976,-6.99 70,0 139.84,0 209.532,0 l 7.968,14.49 c -68.988,0 -137.808,0 -206.488,0" /><path
         id="path50"
         style="fill:#000000;fill-opacity:1;fill-rule:evenodd;stroke:none"
         d="m 1844.18,1190.51 h 153.98 l -6.48,14.49 h -152.5 c 1.64,-5 3.32,-9.8 5,-14.49" /><path
         id="path52"
         style="fill:#000000;fill-opacity:1;fill-rule:evenodd;stroke:none"
         d="m 2318.67,1190.51 c 3.32,0.35 3.48,2.65 0.51,6.99 -3.67,4.69 -7.7,7.19 -12.03,7.5 h -181.99 c 2.65,-5 5.35,-9.8 8,-14.49 h 185.51" /><path
         id="path54"
         style="fill:#000000;fill-opacity:1;fill-rule:evenodd;stroke:none"
         d="m 1266.68,1190.51 h 155.98 c -0.32,4.69 -0.67,9.49 -0.98,14.49 h -154.02 c -0.32,-5 -0.67,-9.8 -0.98,-14.49" /><path
         id="path56"
         style="fill:#000000;fill-opacity:1;fill-rule:evenodd;stroke:none"
         d="m 1915.16,977.5 h 180.5 c -1.99,4.691 -4.18,9.531 -6.48,14.531 h -179.02 c 1.68,-5 3.36,-9.84 5,-14.531" /><path
         id="path58"
         style="fill:#000000;fill-opacity:1;fill-rule:evenodd;stroke:none"
         d="m 2480.16,977.5 c 4.33,0.352 5,2.699 1.99,7.031 -3.63,4.649 -7.97,7.149 -12.97,7.5 h -230.51 c 2.66,-5 5.31,-9.84 8.01,-14.531 h 233.48" /><path
         id="path60"
         style="fill:#000000;fill-opacity:1;fill-rule:evenodd;stroke:none"
         d="m 1253.67,977.5 c 60.67,0 121.49,0 182.5,0 -0.35,4.691 -0.66,9.531 -1.01,14.531 h -180.51 c -0.31,-5 -0.67,-9.84 -0.98,-14.531" /><path
         id="path62"
         style="fill:#000000;fill-opacity:1;fill-rule:evenodd;stroke:none"
         d="m 594.18,977.5 h 180.468 l 5,14.531 H 600.66 L 594.18,977.5" /><path
         id="path64"
         style="fill:#000000;fill-opacity:1;fill-rule:evenodd;stroke:none"
         d="m 923.672,977.5 h 181.988 l 2,14.531 h -180 L 923.672,977.5" /><path
         id="path66"
         style="fill:#000000;fill-opacity:1;fill-rule:evenodd;stroke:none"
         d="m 1584.18,977.5 c 60.66,0 121.33,0 181.99,0 -1.33,4.691 -2.65,9.531 -4.02,14.531 h -180 c 0.66,-5 1.37,-9.84 2.03,-14.531" /><path
         id="path68"
         style="fill:#000000;fill-opacity:1;fill-rule:evenodd;stroke:none"
         d="m 196.68,992.031 c -5,-0.351 -9.34,-2.851 -13.008,-7.5 -3.012,-4.332 -2.344,-6.679 1.988,-7.031 86.02,0 172,0 258.012,0 2.348,4.691 4.848,9.531 7.5,14.531 H 196.68" /><path
         id="path70"
         style="fill:#000000;fill-opacity:1;fill-rule:evenodd;stroke:none"
         d="m 872.148,779.02 -3.988,-14.489 h 208.52 l 1.99,14.489 H 872.148" /><path
         id="path72"
         style="fill:#000000;fill-opacity:1;fill-rule:evenodd;stroke:none"
         d="m 2645.16,771.52 c -3.68,4.652 -8.32,7.152 -13.99,7.5 h -279.02 c 2.69,-5 5.35,-9.84 8.01,-14.489 h 281.99 c 5,0.309 6.01,2.66 3.01,6.989" /><path
         id="path74"
         style="fill:#000000;fill-opacity:1;fill-rule:evenodd;stroke:none"
         d="m 1241.68,779.02 c -0.35,-5 -0.66,-9.84 -1.02,-14.489 h 208.99 c -0.31,4.649 -0.67,9.489 -0.98,14.489 h -206.99" /><path
         id="path76"
         style="fill:#000000;fill-opacity:1;fill-rule:evenodd;stroke:none"
         d="m 1611.17,779.02 c 0.67,-5 1.33,-9.84 1.99,-14.489 h 208.52 c -1.37,4.649 -2.7,9.489 -4.02,14.489 h -206.49" /><path
         id="path78"
         style="fill:#000000;fill-opacity:1;fill-rule:evenodd;stroke:none"
         d="m 1981.68,779.02 c 1.64,-5 3.32,-9.84 5,-14.489 h 206.99 c -2.34,4.649 -4.49,9.489 -6.52,14.489 h -205.47" /><path
         id="path80"
         style="fill:#000000;fill-opacity:1;fill-rule:evenodd;stroke:none"
         d="m 502.66,779.02 -6.488,-14.489 H 703.16 l 5,14.489 h -205.5" /><path
         id="path82"
         style="fill:#000000;fill-opacity:1;fill-rule:evenodd;stroke:none"
         d="m 34.6484,779.02 c -5.6679,-0.348 -10.4687,-2.848 -14.4882,-7.5 -2.6602,-4.329 -1.6407,-6.68 3,-6.989 H 329.648 c 2.692,4.649 5.352,9.489 8.012,14.489 H 34.6484" /><path
         id="path84"
         style="fill:#000000;fill-opacity:1;fill-rule:evenodd;stroke:none"
         d="m 357.148,663.012 c -27.308,1.008 -43.988,3.668 -50,8.008 97.032,181.32 193.872,363 290.512,545 81.68,153 163.36,306.01 245,458.98 6.012,8.67 18,13.67 36.012,15 8.668,-0.66 13.476,-1.99 14.488,-3.98 -0.351,0 -0.5,-0.16 -0.5,-0.51 L 430.16,678.012 c -5.98,-7.66 -30.32,-12.66 -73.012,-15" /><path
         id="path86"
         style="fill:#000000;fill-opacity:1;fill-rule:evenodd;stroke:none"
         d="m 752.148,663.012 c -30,1.328 -48.168,4.328 -54.488,9.019 l 136.012,405.979 c 66.637,199.69 133.476,399.33 200.508,599.02 2.97,6.99 13.16,11.33 30.47,12.97 9.69,-0.31 15.66,-2.15 18.01,-5.47 0,-0.35 0,-0.66 0,-1.01 -47.66,-183.32 -95.512,-366.68 -143.48,-550 l -119.02,-457 C 814.18,669.531 791.48,665 752.148,663.012" /><path
         id="path88"
         style="fill:#000000;fill-opacity:1;fill-rule:evenodd;stroke:none"
         d="m 1147.66,663.012 c -33.32,1.679 -53.01,5.148 -58.99,10.508 l 136.99,1005.5 c 1.33,5.67 10,9.34 26.02,10.98 10.31,-0.66 17.15,-2.81 20.47,-6.48 0.66,-0.36 1.17,-1.02 1.52,-2 -11.33,-181.99 -22.65,-364.02 -34.02,-546.01 -9.34,-153.67 -18.83,-307.151 -28.48,-460.51 -5.66,-5.98 -26.83,-10 -63.51,-11.988" /><path
         id="path90"
         style="fill:#000000;fill-opacity:1;fill-rule:evenodd;stroke:none"
         d="m 1542.66,663.012 c -36.64,1.988 -57.82,6.008 -63.48,11.988 -21.02,335.35 -41.84,670.86 -62.5,1006.52 0.31,0.67 0.66,1.33 0.98,2 3.67,3.67 10.5,5.82 20.5,6.48 16.33,-1.64 25,-5.31 26.02,-10.98 18.98,-138.36 37.97,-276.68 56.99,-415 26.64,-196.99 53.48,-393.821 80.51,-590.5 -6.02,-5.36 -25.66,-8.829 -59.02,-10.508" /><path
         id="path92"
         style="fill:#000000;fill-opacity:1;fill-rule:evenodd;stroke:none"
         d="m 1937.66,663.012 c -39.34,1.988 -62,6.519 -68.01,13.508 -53.99,206.332 -107.81,412.82 -161.49,619.5 l -101.01,387.5 c 0,0.35 0.19,0.66 0.51,1.01 1.99,3.32 7.85,5.16 17.5,5.47 17.34,-1.64 27.5,-5.98 30.5,-12.97 112.35,-335 224.5,-670 336.49,-1004.999 -6.33,-4.691 -24.49,-7.691 -54.49,-9.019" /><path
         id="path94"
         style="fill:#000000;fill-opacity:1;fill-rule:evenodd;stroke:none"
         d="m 2332.66,663.012 c -42.35,2.34 -66.64,7.34 -73.01,15 -78.63,171.328 -157.31,342.648 -235.98,514.018 -75.35,164.65 -150.86,329.14 -226.52,493.48 0,0.35 0,0.51 0,0.51 1.01,1.99 5.86,3.32 14.53,3.98 17.97,-1.33 30,-6.33 35.98,-15 89.33,-167.97 178.82,-335.98 268.51,-503.98 88.99,-166.68 178.01,-333.321 266.99,-500 -6.32,-4.34 -23.16,-7 -50.5,-8.008" /><path
         id="path96"
         style="fill:#000000;fill-opacity:1;fill-rule:evenodd;stroke:none"
         d="m 1885.66,1127.03 -1.01,142.5 c 0,16.64 -0.67,29.34 -1.99,37.97 -1.33,4.34 -3.99,6.52 -8.01,6.52 0,0 -1.33,0 -3.99,0 -1.32,2.66 -3,8.01 -5,15.98 -0.35,4.69 -0.66,9.18 -1.01,13.52 -0.67,1.99 -1.33,3.51 -1.99,4.49 -4.65,31.99 -8.48,63.01 -11.49,93.01 -3.01,30 -4.69,48.16 -5,54.49 -0.35,0.35 -0.51,0.51 -0.51,0.51 0,0.35 0,0.5 0,0.5 0,0 0,0.16 0,0.51 0,0 0,0.16 0,0.47 -3,5.66 -5.82,8.01 -8.51,7.03 -1.99,0 -15.47,-0.35 -40.47,-1.01 -25.35,-0.67 -50.51,-1.33 -75.51,-2 -25.35,-0.66 -38.83,-1.01 -40.51,-1.01 -0.35,-0.31 -0.66,-0.51 -1.01,-0.51 -0.31,0 -0.47,0 -0.47,0 -0.35,0 -0.66,0 -1.02,0 -0.35,-0.31 -0.5,-0.47 -0.5,-0.47 -0.32,0 -0.67,0 -0.98,0 -0.66,-0.66 -1.17,-1.17 -1.52,-1.52 -2.35,1.33 -3.48,-7.15 -3.48,-25.51 l 0.98,-142.5 c 0.35,-15.98 1.01,-28.63 1.99,-37.97 l 18.01,-91.01 1.01,-6.49 18.01,-91.01 c 0.31,-1.33 0.66,-2.5 0.98,-3.52 0.35,-0.31 0.66,-0.82 1.01,-1.48 0.98,-1.33 1.99,-2.15 3.01,-2.5 0.31,0 0.47,0 0.47,0 0.35,-0.36 0.66,-0.51 1.01,-0.51 0.36,0 0.51,0 0.51,0 0.67,0 1.17,0 1.49,0 0,-0.31 0,-0.31 0,0 1.99,0 15.5,0.35 40.5,1.01 25.36,0.67 50.51,1.33 75.51,2 25.31,0.66 38.99,1.01 40.98,1.01 7.34,-0.35 10.19,8.83 8.51,27.5" /><path
         id="path98"
         style="fill:#000000;fill-opacity:1;fill-rule:evenodd;stroke:none"
         d="m 551.68,1095 c -1.371,1.02 -2.852,1.84 -4.532,2.5 -0.308,0 -0.668,0 -0.976,0 -0.352,0 -0.512,0 -0.512,0 l -197.5,11.52 c 0,0 -0.148,0 -0.5,0 -2.351,0.32 -5,-1.32 -8.012,-5 -0.308,-0.35 -0.468,-0.5 -0.468,-0.5 0,-0.36 0,-0.51 0,-0.51 -0.352,-0.31 -0.508,-0.82 -0.508,-1.49 -0.352,0 -0.512,0 -0.512,0 0.36,0 0.36,-0.15 0,-0.5 -1.32,-7.66 -6.68,-29.5 -16.012,-65.51 -9.648,-35.979 -21.488,-72.658 -35.468,-109.998 -3.36,-0.313 -5.86,-1.84 -7.5,-4.492 -2.34,-6.02 -3.36,-11.84 -3.008,-17.5 -4.332,-5 -8.512,-8.989 -12.5,-12 -22.652,1.332 -34.692,2 -36.012,2 -3.32,0 -5.672,-1.329 -7,-3.989 -4.64,-11.371 -7.14,-27.851 -7.5,-49.531 l -1.988,-182.969 c -0.66,-23.672 3.008,-35.191 10.976,-34.531 l 197.5,-10.98 c 0,-0.348 0.192,-0.348 0.512,0 2.649,-0.661 5.5,1.179 8.512,5.511 l 57.5,103.481 0.976,1.519 5,8.989 55,100 c 4.692,11.011 7.192,27.339 7.5,48.98 l 2.032,183.52 c -0.66,22.65 -2.34,33.16 -5,31.48" /><path
         id="path100"
         style="fill:#666666;fill-opacity:1;fill-rule:evenodd;stroke:none"
         d="m 482.66,731.52 -197,11.492 2,165 196.988,-11.492 -1.988,-165" /><path
         id="path102"
         style="fill:#333333;fill-opacity:1;fill-rule:evenodd;stroke:none"
         d="m 347.66,1101.02 c -0.32,0 -0.82,-0.51 -1.488,-1.49 -1.012,-6.01 -6.832,-29.53 -17.5,-70.51 C 317.66,988.359 303.98,947.852 287.66,907.5 l 196.988,-10.98 c 16.68,40 30.352,80.511 41.012,121.49 10.668,41.01 16.488,64.33 17.5,70 0.668,1.33 1.328,1.83 2,1.52 -65.98,3.99 -131.84,7.81 -197.5,11.49" /><path
         id="path104"
         style="fill:#979797;fill-opacity:1;fill-rule:evenodd;stroke:none"
         d="m 543.16,1088.52 c 3.32,4.33 5.16,-3.83 5.512,-24.5 l -2.5,-183.508 C 545.512,858.52 543.52,843.359 540.16,835 l -57.5,-103.48 1.988,165 c 16.372,40 30,80.511 41.012,121.49 10.668,41.01 16.488,64.49 17.5,70.51" /><path
         id="path106"
         style="fill:#ffffff;fill-opacity:1;fill-rule:evenodd;stroke:none"
         d="m 483.16,906.02 c 0.36,0 0.512,0 0.512,0 l -197.5,11.48 c 0,0 -0.152,-0.16 -0.512,-0.469 -1.012,-2.691 -1.68,-7.691 -1.988,-15 l -1.992,-166.519 196.992,-10.981 3.988,6.989 1.988,165 v 0.98 c 0,5.66 -0.468,8.52 -1.488,8.52" /><path
         id="path108"
         style="fill:#4c4c4c;fill-opacity:1;fill-rule:evenodd;stroke:none"
         d="m 442.66,866.02 -197,11.011 c 10,-2.031 22.66,5.981 38.012,23.989 L 480.66,889.531 c -15,-17.691 -27.648,-25.511 -38,-23.511" /><path
         id="path110"
         style="fill:#000000;fill-opacity:1;fill-rule:evenodd;stroke:none"
         d="m 416.172,645.512 2.5,183.008 c 0.668,21.992 2.656,37.14 5.976,45.5 L 227.66,885.512 C 223.98,877.191 221.84,862.031 221.172,840 L 219.18,656.52 c 0,-16.321 1.129,-25 3.48,-26.008 66.012,-3.672 131.828,-7.352 197.5,-10.981 -2.66,0.668 -3.988,9.34 -3.988,25.981" /><path
         id="path112"
         style="fill:#979797;fill-opacity:1;fill-rule:evenodd;stroke:none"
         d="m 424.648,874.531 c 1.012,-2.691 6.524,-5.511 16.524,-8.511 10.308,-3.008 23.476,4.839 39.488,23.511 l -1.48,-165 -57.5,-103.511 c -3.668,-4.34 -5.508,3.82 -5.508,24.492 l 1.988,183.508 c 0.668,21.64 2.86,36.839 6.488,45.511" /><path
         id="path114"
         style="fill:#ffffff;fill-opacity:1;fill-rule:evenodd;stroke:none"
         d="m 479.18,724.531 v 170 l 5.98,2.969 V 735 l -5.98,-10.469" /><path
         id="path116"
         style="fill:#000000;fill-opacity:1;fill-rule:evenodd;stroke:none"
         d="m 2355.16,1078.01 -2,5 -30.5,-0.51 c -3.68,3.36 -8.01,9.18 -13.01,17.5 0.35,5.35 -0.16,10.66 -1.49,16.02 -1.68,3.32 -3.67,5.15 -6.01,5.5 -10.98,38.99 -19.81,77 -26.49,113.99 -6.68,36.99 -10.5,59.49 -11.48,67.5 v 1.01 l -0.51,0.98 c -3.36,5 -6.33,7.19 -9.02,6.52 l -197.97,-4.02 c -8.01,1.68 -12.03,-9.34 -12.03,-32.97 l -3.48,-182.5 c -0.35,-21.37 1.17,-37.85 4.49,-49.53 l 43.52,-107.969 2.97,-7.5 45,-111.011 c 3.36,-5.36 6.37,-7.661 9.02,-7 l 198.01,3.992 c 7.97,-1.641 11.99,9.488 11.99,33.508 l 3.48,182.5 c 0.35,20.98 -1.13,37.35 -4.49,48.99" /><path
         id="path118"
         style="fill:#000000;fill-opacity:1;fill-rule:evenodd;stroke:none"
         d="m 959.18,1302.03 c -0.66,0.67 -1.371,1.13 -2.032,1.49 -0.308,0 -0.468,0.15 -0.468,0.5 -0.66,0 -1.371,0.16 -2.032,0.51 -0.308,0 -0.668,0 -0.976,0 l -199.492,5.98 c -2.7,0.66 -5.508,-1.64 -8.52,-6.99 0,0 0,-0.16 0,-0.51 0,0 0,-0.16 0,-0.51 -0.351,0 -0.5,-0.16 -0.5,-0.47 -0.672,-8.01 -3.48,-30.51 -8.48,-67.5 -5,-36.68 -11.52,-74.33 -19.532,-113.01 -1.636,-1.01 -2.968,-2.85 -3.988,-5.5 -1.012,-6.33 -1.48,-12 -1.48,-17 -2.34,-6.32 -4.532,-11.01 -6.52,-14.02 -10.32,0.35 -15.672,0.51 -15.98,0.51 -3.668,0 -6.168,-1.84 -7.5,-5.51 -2.34,-11.33 -3.52,-27.3 -3.52,-47.97 l -1.012,-183.01 c -1.328,-23.36 2.032,-34.489 10,-33.508 2.34,0 19.532,-0.512 51.524,-1.492 31.988,-1.008 63.988,-1.989 95.976,-3 32.032,-1.02 49.18,-1.489 51.524,-1.489 0.308,0 0.816,0 1.488,0 3,0 5.352,2.5 6.988,7.5 L 925.66,925 l 2,7.031 31.012,107.969 c 2.348,11.02 3.668,27.03 3.988,48.01 l 0.5,183.01 c -0.351,22.65 -1.68,33 -3.98,31.01" /><path
         id="path120"
         style="fill:#333333;fill-opacity:1;fill-rule:evenodd;stroke:none"
         d="m 754.18,1302.5 c -0.352,0 -0.66,-0.47 -1.02,-1.48 -0.66,-6.02 -3.82,-29.85 -9.488,-71.49 -5.66,-41.68 -13.012,-83.16 -21.992,-124.53 l 198.98,-5.98 c 8.988,41.33 16.328,82.82 22,124.5 5.66,41.68 8.82,65.5 9.488,71.48 0.352,1.02 0.661,1.52 1.012,1.52 l -198.98,5.98" /><path
         id="path122"
         style="fill:#666666;fill-opacity:1;fill-rule:evenodd;stroke:none"
         d="m 920.16,934.531 -198.988,5.981 0.976,164.488 199.024,-5.98 -1.012,-164.489" /><path
         id="path124"
         style="fill:#979797;fill-opacity:1;fill-rule:evenodd;stroke:none"
         d="m 952.148,1295 c 2.032,4.34 3.012,-3.63 3.012,-23.98 l -0.98,-183.01 c 0,-21.99 -1.02,-37.35 -3.008,-45.98 l -31.012,-108.01 1.012,165 c 8.668,41.33 15.816,82.82 21.488,124.5 6.012,41.68 9.18,65.5 9.488,71.48" /><path
         id="path126"
         style="fill:#ffffff;fill-opacity:1;fill-rule:evenodd;stroke:none"
         d="m 920.16,1108.52 -198.988,6.01 c 0,0 0,-0.19 0,-0.51 -0.66,-3 -1.012,-8.16 -1.012,-15.5 l -0.98,-165.508 198.98,-5.981 2,7.5 1.012,164.489 v 0.98 c 0,5.66 -0.352,8.52 -1.012,8.52" /><path
         id="path128"
         style="fill:#4c4c4c;fill-opacity:1;fill-rule:evenodd;stroke:none"
         d="m 897.66,1064.53 -198.988,5.98 c 5.668,-1.64 12.656,7.34 20.976,26.99 l 199.024,-5.98 c -8.363,-19.68 -15.352,-28.67 -21.012,-26.99" /><path
         id="path130"
         style="fill:#979797;fill-opacity:1;fill-rule:evenodd;stroke:none"
         d="m 888.16,1072.03 c 0.668,-2.34 3.68,-4.69 8.988,-7.03 5.661,-1.99 12.852,7.03 21.524,27.03 L 918.16,927.5 887.148,819.531 c -1.988,-4.691 -2.968,3.321 -2.968,23.989 l 0.98,182.5 c 0,21.99 1.012,37.34 3,46.01" /><path
         id="path132"
         style="fill:#000000;fill-opacity:1;fill-rule:evenodd;stroke:none"
         d="m 884.18,843.52 0.98,182.5 c 0.352,21.99 1.32,37.34 3,46.01 l -198.98,5.98 c -1.68,-8.67 -2.7,-23.99 -3.008,-45.98 L 685.16,849.531 c 0,-16.679 0.66,-25.351 1.988,-26.011 l 199.024,-6.02 c -1.332,1.02 -1.992,9.691 -1.992,26.02" /><path
         id="path134"
         style="fill:#ffffff;fill-opacity:1;fill-rule:evenodd;stroke:none"
         d="M 920.66,1100 V 937.031 l -3.512,-12.5 V 1092.5 l 3.512,7.5" /><path
         id="path136"
         style="fill:#333333;fill-opacity:1;fill-rule:evenodd;stroke:none"
         d="m 2256.17,1302.03 c -0.35,0.98 -0.86,1.49 -1.52,1.49 l -197.97,-3.99 c 0.31,0.31 0.82,-0.19 1.48,-1.52 0.67,-5.98 4.85,-30 12.5,-71.99 7.66,-42 17.66,-83.83 30,-125.51 l 198.01,3.51 c -12.34,42 -22.34,83.99 -30,125.98 -7.65,42.03 -11.83,66.02 -12.5,72.03" /><path
         id="path138"
         style="fill:#979797;fill-opacity:1;fill-rule:evenodd;stroke:none"
         d="m 2058.16,1298.01 c 0.67,-5.98 4.85,-30 12.5,-71.99 7.66,-42 17.66,-83.99 30,-126.02 l -3.51,-164.488 -43.99,109.998 c -2.65,8.67 -3.98,24.02 -3.98,46.01 l 3.48,182.5 c 0.66,20.67 2.5,28.68 5.5,23.99" /><path
         id="path140"
         style="fill:#4c4c4c;fill-opacity:1;fill-rule:evenodd;stroke:none"
         d="m 2334.18,1068.52 -198.01,-3.99 c -8.67,-1.68 -19.49,7.97 -32.5,28.99 l 198.01,3.98 c 13.32,-21.33 24.14,-30.98 32.5,-28.98" /><path
         id="path142"
         style="fill:#000000;fill-opacity:1;fill-rule:evenodd;stroke:none"
         d="m 2348.16,1074.53 -198.51,-4.02 c 2.69,-8.67 4.02,-23.99 4.02,-45.98 l -3.51,-182.499 c -0.67,-16.011 -2,-24.531 -3.99,-25.511 l 198.01,3.992 c 2.3,0.66 3.63,9.179 3.98,25.508 l 3.52,182.5 c 0.31,21.99 -0.86,37.34 -3.52,46.01" /><path
         id="path144"
         style="fill:#979797;fill-opacity:1;fill-rule:evenodd;stroke:none"
         d="m 2149.65,1071.02 c 2.69,-8.68 4.02,-23.99 4.02,-46.02 l -4.02,-182.5 c -0.31,-20.66 -1.99,-28.48 -5,-23.48 l -40.98,101.492 v 173.508 c 12.66,-20.66 23.32,-30.15 31.99,-28.51 8.68,1.33 13.32,3.16 13.99,5.51" /><path
         id="path146"
         style="fill:#ffffff;fill-opacity:1;fill-rule:evenodd;stroke:none"
         d="m 2300.66,1113.01 c 0,0.35 -0.15,0.51 -0.5,0.51 l -198.01,-3.99 c 0,0.31 0.19,0.16 0.51,-0.51 1.01,-2.65 1.32,-7.65 1.01,-15 l 198.48,3.48 c 0,7.34 -0.47,12.5 -1.49,15.51" /><path
         id="path148"
         style="fill:#ffffff;fill-opacity:1;fill-rule:evenodd;stroke:none"
         d="m 2101.68,1109.53 c 3.32,-2.34 5.16,-7.69 5.47,-16.01 v -182.5 l -10,24.492 v 165.508 c 0.35,6.01 1.83,8.82 4.53,8.51" /><path
         id="path150"
         style="fill:#000000;fill-opacity:1;fill-rule:evenodd;stroke:none"
         d="m 1293.67,1327.5 -0.51,143.52 c 0,6.32 -0.15,11.17 -0.5,14.49 0,1.99 0,3.83 0,5.51 -0.32,1.68 -0.98,3.16 -2,4.49 -0.66,1.68 -2.14,2.65 -4.49,3.01 -0.35,0.35 -0.86,0.5 -1.52,0.5 l -156.99,0.51 c -2.66,0.98 -5.32,-1.52 -8.01,-7.5 -0.31,-0.35 -0.47,-0.51 -0.47,-0.51 0,-0.35 0,-0.5 0,-0.5 0,-0.36 0,-0.51 0,-0.51 0,-6.64 -0.66,-24.85 -2.03,-54.49 -1.33,-29.65 -2.81,-60.16 -4.49,-91.49 -0.67,-1.01 -0.98,-2.19 -0.98,-3.51 -0.35,-3.32 -0.51,-7.66 -0.51,-13.01 v -0.51 c -0.35,-5 -0.86,-8.83 -1.52,-11.48 -3.63,-1.02 -5.82,-3.32 -6.49,-7 -0.35,-7.34 -0.5,-19.68 -0.5,-36.99 l 0.5,-143.51 c 0,-6.02 0.16,-10.82 0.51,-14.5 -1.33,-7.34 1.49,-11.68 8.48,-13 2.03,0 15.51,-0.16 40.51,-0.51 25.35,0 50.5,0 75.5,0 25.36,-0.31 38.99,-0.51 41.02,-0.51 0,0 0.31,0 0.98,0 0.35,0.35 0.66,0.51 1.01,0.51 0,0 0.31,0 0.98,0 0,0.35 0.19,0.51 0.51,0.51 0.35,0 0.5,0.15 0.5,0.5 0.67,0.32 1.18,0.67 1.49,0.98 1.37,1.37 2.03,2.85 2.03,4.53 0.31,0.67 0.47,1.33 0.47,1.99 l 7.5,88.01 0.51,5.47 8,88.01 c 0.36,7.34 0.51,19.69 0.51,36.99" /><path
         id="path152"
         style="fill:#666666;fill-opacity:1;fill-rule:evenodd;stroke:none"
         d="m 1277.66,1203.52 -157,0.5 -0.5,128.99 156.99,-0.51 0.51,-128.98" /><path
         id="path154"
         style="fill:#333333;fill-opacity:1;fill-rule:evenodd;stroke:none"
         d="m 1127.66,1491.52 c 0,0 0,-0.5 0,-1.52 -0.32,-4.65 -1.18,-23.63 -2.5,-56.99 -1.33,-33.32 -3.01,-66.64 -5,-100 l 156.99,-0.51 c 2.03,33.36 3.67,66.68 5,100 1.37,33.36 2.19,52.34 2.5,57.03 0,0.98 0,1.49 0,1.49 -52.31,0 -104.65,0.15 -156.99,0.5" /><path
         id="path156"
         style="fill:#979797;fill-opacity:1;fill-rule:evenodd;stroke:none"
         d="m 1284.65,1489.53 c 0.35,3.99 0.66,-2.19 1.01,-18.51 l 0.51,-143.01 c 0,-17.35 -0.15,-29.49 -0.51,-36.49 l -8,-88 -0.51,128.98 c 2.03,33.36 3.67,66.68 5,100 1.37,33.36 2.19,52.34 2.5,57.03" /><path
         id="path158"
         style="fill:#ffffff;fill-opacity:1;fill-rule:evenodd;stroke:none"
         d="m 1119.65,1340.51 157.03,-0.51 c 0,0 0,-0.16 0,-0.47 l -157.03,0.47 c 0,0.35 0,0.51 0,0.51" /><path
         id="path160"
         style="fill:#ffffff;fill-opacity:1;fill-rule:evenodd;stroke:none"
         d="m 1277.15,1197.5 -156.99,0.51 -0.51,130 157.03,-0.51 0.47,-130" /><path
         id="path162"
         style="fill:#ffffff;fill-opacity:1;fill-rule:evenodd;stroke:none"
         d="m 1276.68,1339.53 c 0.31,1.33 0.47,-0.66 0.47,-6.01 v -1.02 l 0.51,-128.98 -0.51,-6.02 -0.47,130 c 0,5.66 0,9.69 0,12.03" /><path
         id="path164"
         style="fill:#ffffff;fill-opacity:1;fill-rule:evenodd;stroke:none"
         d="m 1276.68,1327.03 -157.03,0.98 c 0,5.66 0,9.69 0,11.99 l 157.03,-0.47 c 0,-2.34 0,-6.52 0,-12.5" /><path
         id="path166"
         style="fill:#4c4c4c;fill-opacity:1;fill-rule:evenodd;stroke:none"
         d="m 1270.66,1303.01 -156.99,0.51 c 1.64,-1.68 3.48,6.17 5.51,23.51 l 156.99,-0.51 c -1.99,-17.34 -3.83,-25.15 -5.51,-23.51" /><path
         id="path168"
         style="fill:#000000;fill-opacity:1;fill-rule:evenodd;stroke:none"
         d="m 1268.16,1128.01 -0.5,143.01 c 0,17.34 0.15,29.49 0.5,36.48 l -156.99,0.51 c -0.35,-6.99 -0.51,-19.14 -0.51,-36.49 l 0.51,-143 c 0.31,-12.66 0.67,-19.34 0.98,-20 52.03,-0.36 104.33,-0.51 157.03,-0.51 -0.66,0.35 -1.02,6.99 -1.02,20" /><path
         id="path170"
         style="fill:#979797;fill-opacity:1;fill-rule:evenodd;stroke:none"
         d="m 1268.16,1307.5 c 0.36,-1.99 1.18,-3.48 2.5,-4.49 1.68,-0.98 3.52,6.83 5.51,23.51 l 0.51,-129.02 -7.5,-87.97 c -0.35,-4.02 -0.66,2.15 -1.02,18.48 l -0.5,143.01 c 0,17.34 0.15,29.49 0.5,36.48" /><path
         id="path172"
         style="fill:#ffffff;fill-opacity:1;fill-rule:evenodd;stroke:none"
         d="M 1277.15,1203.52 V 1340 h -11.99 l 11.01,-13.48 v -133.51 l 0.98,10.51" /><path
         id="path174"
         style="fill:#666666;fill-opacity:1;fill-rule:evenodd;stroke:none"
         d="m 1856.68,1206.52 -156.52,-4.02 -0.98,128.52 156.48,3.98 1.02,-128.48" /><path
         id="path176"
         style="fill:#333333;fill-opacity:1;fill-rule:evenodd;stroke:none"
         d="m 1838.16,1495 c -0.35,1.02 -0.66,1.52 -1.01,1.52 l -156.49,-4.02 c 0,0 0.16,-0.47 0.51,-1.48 0.31,-5 2.15,-24.34 5.51,-58.01 3.32,-33.99 7.66,-68.01 12.97,-101.99 l 156.52,3.98 c -5,34.34 -9.18,68.36 -12.5,102.03 -3.36,33.99 -5.15,53.32 -5.51,57.97" /><path
         id="path178"
         style="fill:#979797;fill-opacity:1;fill-rule:evenodd;stroke:none"
         d="m 1681.17,1490.51 c 0.31,-4.65 2.15,-23.99 5.51,-58.01 3.32,-33.63 7.66,-67.66 12.97,-101.99 l 1.01,-128.48 -18,91.49 c -0.98,6.99 -1.64,19.18 -2,36.48 l -1.01,142.5 c 0,16.02 0.51,22.03 1.52,18.01" /><path
         id="path180"
         style="fill:#ffffff;fill-opacity:1;fill-rule:evenodd;stroke:none"
         d="m 1699.65,1338.01 156.52,4.02 c 0.31,0 0.51,-0.19 0.51,-0.51 l -157.03,-4.02 c 0,0.35 0,0.51 0,0.51" /><path
         id="path182"
         style="fill:#ffffff;fill-opacity:1;fill-rule:evenodd;stroke:none"
         d="M 1857.15,1329.53 1700.16,1325 c 0,5.66 -0.16,9.84 -0.51,12.5 l 156.52,4.02 c 0.67,-2.34 0.98,-6.32 0.98,-11.99" /><path
         id="path184"
         style="fill:#4c4c4c;fill-opacity:1;fill-rule:evenodd;stroke:none"
         d="m 1870.66,1302.5 -156.99,-4.49 c -3.01,-1.99 -7.34,6.83 -13.01,26.52 l 156.49,3.99 c 5.66,-19.34 10.19,-28.01 13.51,-26.02" /><path
         id="path186"
         style="fill:#979797;fill-opacity:1;fill-rule:evenodd;stroke:none"
         d="m 1718.16,1302.03 c 1.02,-7.03 1.68,-19.18 2,-36.52 l 1.01,-142.5 c 0,-15.98 -0.66,-21.99 -1.99,-18.01 l -17.5,91.02 0.98,121.99 c 4.33,-13.01 7.85,-19.14 10.5,-18.48 3.01,0.31 4.65,1.13 5,2.5" /><path
         id="path188"
         style="fill:#000000;fill-opacity:1;fill-rule:evenodd;stroke:none"
         d="m 1877.66,1127.03 -1.49,142.5 c 0,16.99 -0.66,29.14 -1.99,36.49 l -156.52,-3.99 c 1.01,-7.34 1.68,-19.53 1.99,-36.52 l 1.01,-143.01 c 0,-12.3 -0.35,-18.83 -1.01,-19.49 52.34,1.33 104.69,2.85 157.03,4.49 0.66,0.35 0.98,6.84 0.98,19.53" /><path
         id="path190"
         style="fill:#ffffff;fill-opacity:1;fill-rule:evenodd;stroke:none"
         d="m 1699.65,1338.01 v -132.5 l 2.03,-10.98 v 130.98 c 0.66,3.67 0,7.85 -2.03,12.5" /><path
         id="path192"
         style="fill:#000000;fill-opacity:1;fill-rule:evenodd;stroke:none"
         d="m 1552.15,1462.5 c -0.31,3.36 -1.99,5.66 -5,7.03 -0.31,2.31 -0.82,6.49 -1.49,12.5 0,4.65 -0.15,8.17 -0.5,10.47 v 0.51 c 0,1.01 -0.16,1.99 -0.51,3.01 -1.64,25.35 -2.97,50 -3.99,73.98 -1.01,24.34 -1.68,40.35 -1.99,48.01 0,0.35 0,0.51 0,0.51 0,0 0,0.15 0,0.5 0,0.32 0,0.67 0,0.98 -3.01,5.66 -5.66,8.01 -8.01,7.03 l -128,-0.51 c -0.67,0 -1.33,-0.15 -2,-0.5 -1.68,-0.36 -3,-1.18 -3.98,-2.5 -1.02,-1.33 -1.68,-3.01 -2.03,-5 0,-1.33 0,-2.66 0,-3.99 -0.31,-3.01 -0.47,-7.03 -0.47,-12.03 l -0.51,-115.47 c 0,-13.36 0.16,-23.67 0.51,-31.01 l 6.48,-75 0.51,-5 6.49,-75.51 c 0.35,-0.67 0.5,-1.17 0.5,-1.49 0,-0.66 0,-1.17 0,-1.52 0.36,0 0.51,0 0.51,0 0,-0.66 0.16,-1.33 0.51,-1.99 0.31,-0.31 0.66,-0.67 0.98,-0.98 1.01,-1.01 1.83,-1.68 2.5,-2.03 0,0 0.15,0 0.5,0 0.36,-0.31 0.67,-0.47 1.02,-0.47 0.31,0 0.47,0 0.47,0 0.66,0 1.17,0 1.52,0 5.31,0 26.64,0 63.99,0 36.99,0.31 58.16,0.47 63.51,0.47 6.64,2.03 9.49,6.02 8.48,12.03 0,2.66 0,6.49 0,11.49 l 0.51,116.01 c 0.35,13.32 0.15,23.48 -0.51,30.47" /><path
         id="path194"
         style="fill:#666666;fill-opacity:1;fill-rule:evenodd;stroke:none"
         d="m 1536.17,1382.03 -127.5,-0.51 0.51,104.5 127.5,0.5 -0.51,-104.49" /><path
         id="path196"
         style="fill:#333333;fill-opacity:1;fill-rule:evenodd;stroke:none"
         d="m 1530.66,1617.5 c 0,1.02 -0.15,1.52 -0.5,1.52 l -127.5,-0.5 c 0,0 0,-0.51 0,-1.49 0.35,-4.02 1.01,-19.84 1.99,-47.5 1.37,-27.69 2.85,-55.51 4.53,-83.51 l 127.5,0.5 c -1.68,28.32 -3.16,56.33 -4.53,83.99 -0.98,27.65 -1.49,43.36 -1.49,46.99" /><path
         id="path198"
         style="fill:#979797;fill-opacity:1;fill-rule:evenodd;stroke:none"
         d="m 1403.16,1617.03 c 0,-3.67 0.51,-19.33 1.49,-47.03 1.37,-27.66 2.85,-55.66 4.53,-83.98 l -0.51,-104.5 -6.52,75.51 c -0.31,5.98 -0.47,15.98 -0.47,30 l 0.47,115.47 c 0.35,13.36 0.66,18.16 1.01,14.53" /><path
         id="path200"
         style="fill:#ffffff;fill-opacity:1;fill-rule:evenodd;stroke:none"
         d="m 1409.65,1492.03 127.5,0.47 c 0.35,0 0.51,-0.16 0.51,-0.47 l -128.01,-0.51 c 0,0.32 0,0.51 0,0.51" /><path
         id="path202"
         style="fill:#ffffff;fill-opacity:1;fill-rule:evenodd;stroke:none"
         d="m 1536.68,1377.5 -127.5,-0.47 0.47,105 127.5,0.47 -0.47,-105" /><path
         id="path204"
         style="fill:#ffffff;fill-opacity:1;fill-rule:evenodd;stroke:none"
         d="m 1537.66,1482.03 -128.01,-0.51 c 0,4.65 0,8.01 0,10 l 127.5,0.51 c 0.35,-2.03 0.51,-5.35 0.51,-10" /><path
         id="path206"
         style="fill:#ffffff;fill-opacity:1;fill-rule:evenodd;stroke:none"
         d="m 1409.65,1491.52 c 0,-1.99 0,-5.35 0,-10 l -0.47,-105 -0.51,5 0.51,104.5 v 0.5 c 0,4.65 0.16,6.33 0.47,5" /><path
         id="path208"
         style="fill:#4c4c4c;fill-opacity:1;fill-rule:evenodd;stroke:none"
         d="m 1542.66,1459.53 -127.5,-0.51 c -1.64,-1.99 -3.48,5.32 -5.51,22 l 127.5,0.5 c 2.34,-16.32 4.18,-23.67 5.51,-21.99" /><path
         id="path210"
         style="fill:#000000;fill-opacity:1;fill-rule:evenodd;stroke:none"
         d="m 1544.65,1462.03 -127.97,-0.51 c 0.31,-6.01 0.47,-16.01 0.47,-30 l -0.47,-115.5 c 0,-10.36 -0.2,-15.67 -0.51,-16.02 42.66,0 85.16,0.2 127.5,0.51 0.31,0.35 0.67,5.66 0.98,16.01 l 0.51,115.51 c 0,13.99 -0.16,23.99 -0.51,30" /><path
         id="path212"
         style="fill:#979797;fill-opacity:1;fill-rule:evenodd;stroke:none"
         d="m 1416.68,1461.52 c 0.31,-6.01 0.47,-16.01 0.47,-30 l -0.47,-115.5 c -0.35,-13.32 -0.66,-18.32 -1.02,-15 l -6.48,75.5 0.47,104.5 c 2.03,-14.65 3.67,-22 5,-22 1.01,0.32 1.68,1.18 2.03,2.5" /><path
         id="path214"
         style="fill:#010101;fill-opacity:1;fill-rule:nonzero;stroke:none"
         d="M 140.23,10.5117 102.891,226.449 68.8281,10.5117 H 43.6719 L 89.9219,304.57 C 72.1914,300.59 58.5898,292.109 49.1406,279.102 39.6484,266.051 34.9219,247.77 34.9219,224.262 c 0,-9.492 0.6289,-17.274 1.8789,-23.282 1.25,-6.058 2.6875,-10.902 4.3711,-14.531 1.6367,-3.679 3.3594,-6.25 5.1562,-7.82 1.8711,-1.481 3.2032,-2.5 4.0625,-3.117 -15.1211,0 -27.3008,3.828 -36.5625,11.558 -9.29685,7.7 -13.906225,19.84 -13.906225,36.41 0,13.75 3.316405,26.79 10.000005,39.219 6.75782,12.5 15.30862,23.321 25.62892,32.5 10.3906,9.25 21.8711,16.602 34.3711,22.031 12.5,5.5 24.6094,8.282 36.4061,8.282 4.453,0 8.832,-0.434 13.121,-1.25 4.379,-0.864 8.481,-2.422 12.352,-4.692 L 173.828,75.6602 223.051,319.57 h 47.808 L 294.449,10.5117 H 246.48 L 229.77,230.66 185.23,10.5117 Z M 468.238,220.512 V 77.6992 c 0,-2.8203 0.16,-6.3281 0.473,-10.4687 0.309,-4.1797 1.09,-8.2813 2.34,-12.3516 1.25,-4.0586 3.129,-7.6094 5.629,-10.6172 2.5,-2.9336 5.98,-4.3828 10.468,-4.3828 13.75,0 23.832,15.2422 30.313,45.7813 h 15.469 c -3.051,-17.6094 -6.95,-31.5196 -11.719,-41.711 -4.801,-10.2383 -9.84,-18.0508 -15.16,-23.4375 -5.313,-5.3125 -10.781,-8.7109 -16.403,-10.1601 -5.546,-1.56254 -10.546,-2.33988 -15,-2.33988 -6.488,0 -12.027,1.08984 -16.718,3.27738 -4.61,2.2617 -8.52,5.2304 -11.719,8.9101 -3.242,3.6289 -5.859,7.8125 -7.813,12.5 -1.878,4.7617 -3.398,9.7227 -4.527,14.8399 -5.32,-13.75 -12.351,-23.8282 -21.101,-30.1602 -8.668,-6.25 -17.731,-9.36718 -27.18,-9.36718 -8.129,0 -15.86,1.08984 -23.129,3.27738 -7.301,2.2617 -13.59,5.9804 -18.91,11.0898 -5.313,5.1992 -9.531,11.9219 -12.653,20.1602 -3.046,8.3203 -4.527,18.5117 -4.527,30.6211 V 220.512 h 41.867 V 77.6992 c 0,-13.75 2.383,-23.5195 7.192,-29.2187 4.769,-5.75 10.82,-8.6016 18.121,-8.6016 3.828,0 7.738,1.0195 11.719,3.1328 3.949,2.0664 7.429,5.0781 10.468,9.0586 3.133,3.9492 5.633,8.668 7.5,14.2188 1.961,5.6211 2.973,12.0703 2.973,19.3711 V 220.512 Z" /><path
         id="path216"
         style="fill:#010101;fill-opacity:1;fill-rule:nonzero;stroke:none"
         d="M 559.02,304.57 V 77.6992 c 0,-2.8203 0.16,-6.3281 0.468,-10.4687 0.313,-4.1797 1.102,-8.2813 2.352,-12.3516 1.25,-4.0586 3.121,-7.6094 5.621,-10.6172 2.5,-2.9336 5.98,-4.3828 10.469,-4.3828 13.75,0 23.832,15.2422 30.308,45.7813 h 15.473 C 620.66,68.0508 616.762,54.1406 611.988,43.9492 607.191,33.7109 602.148,25.8984 596.84,20.5117 591.52,15.1992 586.051,11.8008 580.43,10.3516 574.801,8.78906 569.73,8.01172 565.27,8.01172 c -9.801,0 -17.77,1.86719 -23.899,5.61718 -6.172,3.75 -11.062,8.5195 -14.691,14.3828 -3.668,5.9375 -6.211,12.5391 -7.66,19.8399 -1.36,7.2695 -2.032,14.2968 -2.032,21.0976 V 298.629 Z" /><path
         id="path218"
         style="fill:#010101;fill-opacity:1;fill-rule:nonzero;stroke:none"
         d="m 650.078,284.41 v -63.898 h 32.344 V 205.82 H 650.078 V 77.6992 c 0,-3.3594 0.152,-7.1875 0.473,-11.5703 0.308,-4.3672 1.09,-8.5508 2.34,-12.5 1.25,-3.8594 3.16,-7.1484 5.781,-9.8398 2.699,-2.6172 6.406,-3.9102 11.098,-3.9102 7.57,0 14.839,3.75 21.71,11.25 6.879,7.582 12.231,19.1016 16.098,34.5313 h 15.621 C 718.398,68.0508 713.238,54.1406 707.73,43.9492 702.301,33.7109 696.641,25.8984 690.699,20.5117 684.84,15.1992 679.059,11.8008 673.359,10.3516 667.621,8.78906 662.422,8.01172 657.73,8.01172 c -10.109,0 -18.39,1.86719 -24.839,5.61718 -6.481,3.75 -11.52,8.5195 -15.161,14.3828 -3.671,5.9375 -6.21,12.418 -7.652,19.5274 -1.367,7.1914 -2.027,14.3007 -2.027,21.4101 V 205.82 h -14.223 v 14.692 h 14.223 v 57.968 z" /><path
         id="path220"
         style="fill:#010101;fill-opacity:1;fill-rule:nonzero;stroke:none"
         d="M 749.34,220.512 V 77.6992 c 0,-2.8203 0.148,-6.3281 0.461,-10.4687 0.32,-4.1797 1.097,-8.2813 2.347,-12.3516 1.25,-4.0586 3.122,-7.6094 5.622,-10.6172 2.5,-2.9336 5.98,-4.3828 10.468,-4.3828 13.75,0 23.832,15.2422 30.313,45.7813 H 814.02 C 810.98,68.0508 807.07,54.1406 802.301,43.9492 797.5,33.7109 792.461,25.8984 787.148,20.5117 781.84,15.1992 776.371,11.8008 770.738,10.3516 765.121,8.78906 760.039,8.01172 755.59,8.01172 c -9.809,0 -17.781,1.86719 -23.91,5.61718 -6.168,3.75 -11.059,8.5195 -14.692,14.3828 -3.668,5.9375 -6.207,12.5391 -7.648,19.8399 -1.371,7.2695 -2.039,14.2968 -2.039,21.0976 V 220.512 Z m -49.539,60.468 c 0,7.571 2.66,14.141 7.969,19.68 5.32,5.629 11.878,8.442 19.691,8.442 7.578,0 14.141,-2.813 19.687,-8.442 5.622,-5.539 8.442,-12.109 8.442,-19.68 0,-7.82 -2.82,-14.378 -8.442,-19.691 -5.546,-5.309 -12.109,-7.969 -19.687,-7.969 -7.813,0 -14.371,2.66 -19.691,7.969 -5.309,5.313 -7.969,11.871 -7.969,19.691 z" /><path
         id="path222"
         style="fill:#010101;fill-opacity:1;fill-rule:nonzero;stroke:none"
         d="m 839.922,220.512 v -28.91 c 7.269,13.437 15,21.918 23.129,25.468 8.121,3.629 15.82,5.469 23.121,5.469 7.269,0 13.629,-1.019 19.058,-2.969 5.508,-1.871 10.2,-4.531 14.071,-7.968 3.937,-3.364 7.219,-7.262 9.84,-11.723 2.699,-4.488 4.879,-9.367 6.558,-14.68 3.949,8.43 8.012,15.071 12.192,20 4.257,4.879 8.48,8.629 12.66,11.25 4.14,2.692 8.277,4.371 12.34,5 4.058,0.699 7.73,1.09 11.089,1.09 12.579,0 22.74,-2.418 30.47,-7.187 7.7,-4.692 13.48,-10.743 17.35,-18.122 3.94,-7.429 6.56,-15.55 7.81,-24.378 1.33,-8.872 2.03,-17.34 2.03,-25.473 0,-5 -0.16,-10.539 -0.47,-16.559 -0.31,-6.05 -0.62,-12.269 -0.94,-18.59 -0.23,-6.25 -0.46,-12.5816 -0.78,-18.9097 -0.23,-6.25 -0.31,-12.0312 -0.31,-17.3398 0,-2.1914 0.08,-5.3203 0.31,-9.3789 0.32,-4.0625 0.98,-8.0821 2.03,-12.0313 1.14,-3.8711 2.97,-7.3008 5.47,-10.3086 2.58,-2.9336 6.29,-4.3828 11.1,-4.3828 6.33,0 12.11,3.6406 17.34,10.9414 5.2,7.2695 9.45,18.9102 12.81,34.8399 h 15.63 c -3.13,-17.6094 -7.11,-31.5196 -11.88,-41.711 -4.68,-10.2383 -9.76,-18.0508 -15.15,-23.4375 -5.32,-5.3125 -10.63,-8.7109 -15.94,-10.1601 -5.31,-1.56254 -10.24,-2.33988 -14.69,-2.33988 -8.98,0 -16.52,1.71875 -22.65,5.14848 -6.18,3.5195 -11.22,8.2109 -15.16,14.0703 -3.87,5.9297 -6.72,12.8086 -8.59,20.6211 -1.801,7.8086 -2.661,15.9375 -2.661,24.3789 0,2.5 0.039,7.1797 0.161,14.0586 0.07,6.8711 0.191,14.2229 0.308,22.0309 0.192,7.891 0.352,15.352 0.473,22.34 0.187,6.961 0.308,11.879 0.308,14.692 0,8.949 -0.738,16.328 -2.187,22.187 -1.371,5.941 -3.281,10.551 -5.781,13.91 -2.5,3.321 -5.391,5.66 -8.59,7.031 -3.25,1.442 -6.68,2.18 -10.321,2.18 -8.75,0 -15.859,-3.512 -21.25,-10.461 -5.429,-7 -9.289,-18.75 -11.558,-35.32 V 10.5117 H 896.641 V 150.82 c 0,5 -0.231,9.879 -0.621,14.692 -0.43,4.758 -1.489,9.058 -3.129,12.808 -1.68,3.75 -4.063,6.719 -7.192,8.91 -3.039,2.258 -7.179,3.43 -12.5,3.43 -8.98,0 -15.777,-3.711 -20.469,-11.09 -4.609,-7.422 -8.859,-18.98 -12.808,-34.691 V 10.5117 H 798.051 V 220.512 Z" /><path
         id="path224"
         style="fill:#010101;fill-opacity:1;fill-rule:nonzero;stroke:none"
         d="M 1244.26,220.512 V 77.6992 c 0,-2.8203 0.08,-6.3281 0.31,-10.4687 0.31,-4.1797 1.09,-8.2813 2.34,-12.3516 1.25,-4.0586 3.13,-7.6094 5.63,-10.6172 2.5,-2.9336 5.98,-4.3828 10.47,-4.3828 13.75,0 23.83,15.2422 30.31,45.7813 h 15.47 c -3.05,-17.6094 -6.95,-31.5196 -11.72,-41.711 -4.69,-10.2383 -9.77,-18.0508 -15.16,-23.4375 -5.31,-5.3125 -10.78,-8.7109 -16.4,-10.1601 -5.55,-1.56254 -10.55,-2.33988 -15,-2.33988 -6.49,0 -12.03,1.08984 -16.72,3.27738 -4.61,2.2617 -8.52,5.2304 -11.72,8.9101 -3.24,3.6289 -5.86,7.8125 -7.81,12.5 -1.88,4.7617 -3.4,9.8399 -4.53,15.1524 -4.18,-10.9414 -10.94,-20.3125 -20.32,-28.1211 -9.37,-7.8203 -20.78,-11.71878 -34.21,-11.71878 -8.44,0 -16.96,1.67969 -25.47,4.99998 -8.56,3.3164 -16.25,8.8281 -23.13,16.5586 -6.87,7.6992 -12.5,17.6602 -16.87,29.8399 -4.3,12.1914 -6.41,27.0703 -6.41,44.6918 0,12.886 1.45,26.328 4.38,40.308 2.89,14.07 7.57,26.801 14.06,38.289 6.44,11.442 14.72,20.93 24.84,28.43 10.08,7.582 22.27,11.41 36.56,11.41 3.32,0 6.88,-0.391 10.63,-1.09 3.83,-0.629 7.5,-1.801 10.94,-3.437 3.51,-1.684 6.79,-4.032 9.84,-7.032 3.13,-2.929 5.66,-6.492 7.66,-10.628 v 20.16 z m -78.6,-180.6331 c 4.14,0 8.44,1.1719 12.82,3.6016 4.37,2.3789 8.28,5.6211 11.72,9.6797 3.51,4.0703 6.4,8.8281 8.59,14.3789 2.26,5.6211 3.44,11.6406 3.44,18.1211 v 95.7888 c -2,4.449 -5,8.59 -9.07,12.34 -4.06,3.832 -9.33,5.781 -15.78,5.781 -8.98,0 -16.68,-3.05 -23.12,-9.058 -6.49,-6.063 -11.68,-13.672 -15.63,-22.813 -3.86,-9.07 -6.72,-19.027 -8.59,-29.847 -1.8,-10.743 -2.66,-21.012 -2.66,-30.782 0,-24.0583 3.28,-41.3317 9.85,-51.7184 6.64,-10.3125 16.13,-15.4727 28.43,-15.4727 z" /><path
         id="path226"
         style="fill:#010101;fill-opacity:1;fill-rule:nonzero;stroke:none"
         d="m 1334.57,220.512 v -35.313 c 3.44,5.071 6.76,9.879 10,14.371 3.2,4.45 6.76,8.36 10.63,11.719 3.94,3.32 8.28,6.012 12.96,8.121 4.77,2.07 10.16,3.129 16.1,3.129 9.45,0 16.44,-2.461 20.94,-7.34 4.45,-4.929 6.71,-10.859 6.71,-17.82 0,-4.18 -0.74,-7.649 -2.18,-10.469 -1.37,-2.808 -3.05,-5.07 -5,-6.711 -1.88,-1.679 -3.99,-2.898 -6.25,-3.597 -2.19,-0.743 -4.18,-1.09 -5.94,-1.09 -2.5,0 -4.53,0.539 -6.09,1.718 -1.49,1.129 -2.97,2.34 -4.54,3.59 -1.56,1.25 -3.36,2.418 -5.31,3.59 -1.99,1.141 -4.49,1.719 -7.5,1.719 -6.48,0 -12.65,-2.258 -18.59,-6.719 -5.86,-4.488 -11.17,-9.289 -15.94,-14.371 V 10.5117 H 1292.7 V 220.512 Z" /><path
         id="path228"
         style="fill:#010101;fill-opacity:1;fill-rule:nonzero;stroke:none"
         d="m 1475.66,304.57 v -152.5 l 72.35,68.442 h 40.78 l -70.16,-56.723 h 4.22 c 12.5,0 22.42,-2.148 29.85,-6.41 7.5,-4.18 13.28,-9.527 17.34,-16.09 4.06,-6.559 6.72,-13.711 7.97,-21.41 1.25,-7.731 1.87,-14.918 1.87,-21.5587 0,-5.9414 -0.23,-12.6211 -0.62,-20 -0.43,-7.4219 -0.63,-13.0898 -0.63,-17.0312 0,-2.5 0.2,-5 0.63,-7.5 0.39,-2.5 1.25,-4.8399 2.5,-7.0274 1.25,-2.1133 3.16,-3.75 5.78,-5 2.69,-1.25 6.29,-1.8828 10.78,-1.8828 2.27,0 5.23,0.1992 8.91,0.6328 3.63,0.3867 6.56,1.3281 8.75,2.8086 0,-1.1719 0.04,-2.2695 0.15,-3.2812 0.2,-0.9375 0.32,-1.8399 0.32,-2.6602 0,-6.168 -1.18,-11.207 -3.44,-15.1484 -2.19,-3.8711 -5,-6.8789 -8.44,-9.0703 -3.36,-2.1094 -6.99,-3.42973 -10.94,-4.05864 -3.86,-0.70312 -7.46,-1.08984 -10.78,-1.08984 -8.12,0 -15.15,1.25 -21.09,3.74998 -5.86,2.5 -10.71,5.9375 -14.53,10.3086 -3.75,4.3789 -6.53,9.4102 -8.28,15.1602 -1.8,5.6992 -2.66,11.9101 -2.66,18.5898 0,1.1289 0,3.5899 0,7.3399 0,3.8281 0.04,7.8593 0.16,12.039 0.07,4.1406 0.15,8.1211 0.15,11.8711 0,3.8281 0,6.4492 0,7.8086 0,14.5701 -2.65,24.3831 -7.97,29.3831 -5.31,5.078 -11.48,7.648 -18.43,7.648 -7.31,0 -13.83,-2.422 -19.54,-7.18 -5.74,-4.808 -10.74,-13.21 -15,-25.1597 V 10.5117 h -41.87 V 298.629 Z" /><path
         id="path230"
         style="fill:#010101;fill-opacity:1;fill-rule:nonzero;stroke:none"
         d="M 1855.51,10.5117 1818.16,226.449 1784.1,10.5117 h -25.15 L 1805.2,304.57 c -17.74,-3.98 -31.33,-12.461 -40.79,-25.468 -9.49,-13.051 -14.21,-31.332 -14.21,-54.84 0,-9.492 0.62,-17.274 1.87,-23.282 1.25,-6.058 2.7,-10.902 4.38,-14.531 1.64,-3.679 3.35,-6.25 5.15,-7.82 1.88,-1.481 3.2,-2.5 4.06,-3.117 -15.11,0 -27.3,3.828 -36.56,11.558 -9.3,7.7 -13.9,19.84 -13.9,36.41 0,13.75 3.32,26.79 10,39.219 6.75,12.5 15.31,23.321 25.62,32.5 10.39,9.25 21.88,16.602 34.38,22.031 12.5,5.5 24.6,8.282 36.4,8.282 4.45,0 8.83,-0.434 13.13,-1.25 4.37,-0.864 8.47,-2.422 12.34,-4.692 L 1889.1,75.6602 1938.32,319.57 h 47.81 l 23.6,-309.0583 h -47.97 L 1945.04,230.66 1900.51,10.5117 Z" /><path
         id="path232"
         style="fill:#010101;fill-opacity:1;fill-rule:nonzero;stroke:none"
         d="m 2173.05,168.012 c 0,-19.614 -8.09,-36.024 -24.22,-49.223 -16.06,-13.129 -38.36,-21.2109 -66.88,-24.2187 1.02,-11.25 3.01,-20.3906 5.94,-27.3398 3.01,-7 6.6,-12.5 10.78,-16.5703 4.26,-4.0586 9.1,-6.8711 14.53,-8.4297 5.39,-1.5703 11.1,-2.3516 17.03,-2.3516 13.44,0 26.02,3.4805 37.82,10.4727 11.75,7.0703 21.29,18.8281 28.59,35.3086 h 13.44 c -3.67,-10.3086 -8.71,-20.1485 -15.16,-29.5313 -6.48,-9.3672 -14.06,-17.6484 -22.81,-24.8398 -8.67,-7.1094 -18.05,-12.7696 -28.13,-17.0274 -10,-4.1406 -20.31,-6.24998 -30.93,-6.24998 -9.81,0 -19.3,1.67969 -28.44,4.99998 -9.06,3.3164 -17.15,8.8281 -24.22,16.5586 -6.99,7.6992 -12.66,17.6992 -17.03,30 -4.3,12.3789 -6.41,27.5391 -6.41,45.4687 0,11.762 1.29,24.449 3.91,38.121 2.69,13.75 7.19,26.488 13.44,38.289 6.32,11.75 14.61,21.563 24.84,29.371 10.2,7.809 22.85,11.719 37.97,11.719 7.07,0 13.91,-0.777 20.47,-2.34 6.56,-1.488 12.5,-4.219 17.81,-8.289 5.31,-4.058 9.57,-9.609 12.81,-16.558 3.21,-6.993 4.85,-16.09 4.85,-27.34 z m -91.57,-57.192 c 19.89,3.129 35.63,10.16 47.19,21.09 11.64,10.942 17.5,24.379 17.5,40.32 0,10.622 -1.83,18.2 -5.47,22.809 -3.67,4.691 -8.82,7.031 -15.47,7.031 -7.3,0 -13.71,-2.808 -19.21,-8.441 -5.43,-5.617 -9.97,-12.891 -13.6,-21.719 -3.67,-8.75 -6.4,-18.551 -8.28,-29.371 -1.8,-10.738 -2.66,-21.328 -2.66,-31.719 z" /><path
         id="path234"
         style="fill:#010101;fill-opacity:1;fill-rule:nonzero;stroke:none"
         d="M 2350.86,304.57 V 77.6992 c 0,-2.8203 0.08,-6.3281 0.31,-10.4687 0.31,-4.1797 1.1,-8.2813 2.35,-12.3516 1.25,-4.0586 3.12,-7.6094 5.62,-10.6172 2.5,-2.9336 5.98,-4.3828 10.47,-4.3828 13.75,0 23.83,15.2422 30.31,45.7813 h 15.47 c -3.05,-17.6094 -6.95,-31.5196 -11.72,-41.711 -4.69,-10.2383 -9.76,-18.0508 -15.15,-23.4375 -5.32,-5.3125 -10.79,-8.7109 -16.41,-10.1601 -5.55,-1.56254 -10.55,-2.33988 -15,-2.33988 -6.49,0 -12.03,1.08984 -16.72,3.27738 -4.61,2.2617 -8.51,5.2304 -11.72,8.9101 -3.24,3.6289 -5.86,7.8125 -7.81,12.5 -1.88,4.7617 -3.4,9.8399 -4.53,15.1524 -4.18,-10.9414 -10.94,-20.3125 -20.31,-28.1211 -9.38,-7.8203 -20.79,-11.71878 -34.22,-11.71878 -8.44,0 -16.96,1.67969 -25.47,4.99998 -8.56,3.3164 -16.25,8.8281 -23.13,16.5586 -6.87,7.6992 -12.5,17.6602 -16.87,29.8399 -4.3,12.1914 -6.41,27.0703 -6.41,44.6918 0,12.886 1.45,26.328 4.38,40.308 2.89,14.07 7.58,26.801 14.06,38.289 6.44,11.442 14.73,20.93 24.84,28.43 10.08,7.582 22.27,11.41 36.57,11.41 3.32,0 6.87,-0.391 10.62,-1.09 3.83,-0.629 7.5,-1.801 10.94,-3.437 3.51,-1.684 6.79,-4.032 9.84,-7.032 3.13,-2.929 5.67,-6.492 7.66,-10.628 v 98.277 z M 2272.27,39.8789 c 4.14,0 8.43,1.1719 12.81,3.6016 4.37,2.3789 8.28,5.6211 11.72,9.6797 3.51,4.0703 6.4,8.8281 8.59,14.3789 2.27,5.6211 3.44,11.6406 3.44,18.1211 v 95.7888 c -1.99,4.449 -5,8.59 -9.06,12.34 -4.07,3.832 -9.34,5.781 -15.79,5.781 -8.98,0 -16.68,-3.05 -23.12,-9.058 -6.48,-6.063 -11.68,-13.672 -15.63,-22.813 -3.86,-9.07 -6.71,-19.027 -8.59,-29.847 -1.8,-10.743 -2.66,-21.012 -2.66,-30.782 0,-24.0583 3.29,-41.3317 9.85,-51.7184 6.64,-10.3125 16.13,-15.4727 28.44,-15.4727 z" /><path
         id="path236"
         style="fill:#010101;fill-opacity:1;fill-rule:nonzero;stroke:none"
         d="M 2441.64,220.512 V 77.6992 c 0,-2.8203 0.16,-6.3281 0.47,-10.4687 0.31,-4.1797 1.09,-8.2813 2.34,-12.3516 1.25,-4.0586 3.13,-7.6094 5.63,-10.6172 2.5,-2.9336 5.97,-4.3828 10.47,-4.3828 13.75,0 23.83,15.2422 30.31,45.7813 h 15.47 c -3.05,-17.6094 -6.95,-31.5196 -11.72,-41.711 -4.81,-10.2383 -9.84,-18.0508 -15.16,-23.4375 -5.31,-5.3125 -10.78,-8.7109 -16.4,-10.1601 -5.63,-1.56254 -10.71,-2.33988 -15.16,-2.33988 -9.8,0 -17.77,1.86719 -23.91,5.61718 -6.17,3.75 -11.05,8.5195 -14.68,14.3828 -3.68,5.9375 -6.21,12.5391 -7.66,19.8399 -1.37,7.2695 -2.03,14.2968 -2.03,21.0976 V 220.512 Z m -49.53,60.468 c 0,7.571 2.66,14.141 7.97,19.68 5.31,5.629 11.87,8.442 19.69,8.442 7.57,0 14.14,-2.813 19.68,-8.442 5.63,-5.539 8.44,-12.109 8.44,-19.68 0,-7.82 -2.81,-14.378 -8.44,-19.691 -5.54,-5.309 -12.11,-7.969 -19.68,-7.969 -7.82,0 -14.38,2.66 -19.69,7.969 -5.31,5.313 -7.97,11.871 -7.97,19.691 z" /><path
         id="path238"
         style="fill:#010101;fill-opacity:1;fill-rule:nonzero;stroke:none"
         d="M 2645.35,220.512 V 77.6992 c 0,-3.3594 0.08,-7.1875 0.31,-11.5703 0.32,-4.3672 1.1,-8.5508 2.35,-12.5 1.25,-3.8594 3.16,-7.1484 5.78,-9.8398 2.69,-2.6172 6.6,-3.9102 11.72,-3.9102 2.19,0 4.57,0.2422 7.19,0.7813 2.69,0.6289 4.88,1.1796 6.56,1.7187 0.31,-1.3594 0.51,-2.6094 0.62,-3.75 0.2,-1.168 0.32,-2.418 0.32,-3.75 0,-8.4297 -3.25,-15.0781 -9.69,-19.8398 -6.49,-4.6875 -13.75,-7.02738 -21.88,-7.02738 -8.67,0 -16.52,2.96878 -23.59,8.89848 -6.99,6.0195 -11.72,16.25 -14.22,30.6289 -4.18,-10.9375 -11.05,-20.2696 -20.62,-27.9688 -9.5,-7.7305 -20.94,-11.55858 -34.38,-11.55858 -8.44,0 -16.95,1.71875 -25.47,5.14848 -8.55,3.5195 -16.21,9.0703 -22.97,16.5703 -6.68,7.5703 -12.18,17.3789 -16.56,29.3711 -4.3,12.0703 -6.41,26.6367 -6.41,43.7504 0,13.199 1.45,26.878 4.38,40.937 2.89,14.141 7.5,27.031 13.75,38.59 6.33,11.641 14.57,21.25 24.69,28.75 10.07,7.582 22.11,11.41 36.09,11.41 7.27,0 14.77,-1.559 22.5,-4.687 7.7,-3.051 13.52,-8.872 17.5,-17.5 v 20.16 z M 2564.57,39.8789 c 5.31,0 10.35,1.25 15.16,3.75 4.76,2.582 8.9,5.9805 12.34,10.1602 3.52,4.1406 6.29,8.9414 8.28,14.3711 1.95,5.5117 2.97,11.3281 2.97,17.5 v 95.7888 c -1.99,4.762 -4.96,8.981 -8.91,12.653 -3.86,3.628 -9.45,5.468 -16.71,5.468 -8.99,0 -16.57,-3.05 -22.82,-9.058 -6.17,-6.063 -11.21,-13.711 -15.15,-22.973 -3.87,-9.18 -6.72,-19.449 -8.6,-30.777 -1.79,-11.371 -2.65,-22.274 -2.65,-32.66 0,-22.6215 3.47,-38.9809 10.47,-49.0629 7.07,-10.1172 15.62,-15.1602 25.62,-15.1602 z" /></g></g></svg>